<!-- Generator: Adobe Illustrator 24.2.3, SVG Export Plug-In  -->

<svg version="1.1" xmlns="http://www.w3.org/2000/svg" xmlns:xlink="http://www.w3.org/1999/xlink" x="0px" y="0px"
     width="118.14px" height="128.92px" viewBox="0 0 118.14 128.92"
     style="overflow:visible;enable-background:new 0 0 118.14 128.92;" xml:space="preserve">
<style type="text/css">
    .st0{fill:#FFF;}
</style>
<defs>
</defs>
<g>
    <path class="st0" d="M106.5,97.33c-0.1-0.17-0.23-0.33-0.33-0.5c-0.16-0.24-0.31-0.48-0.48-0.71c-1.26-1.5-2.89-2.9-4.89-4.22
        c-0.33-0.21-0.65-0.43-1-0.64c-1.92-0.92-4.07-1.51-6.34-1.77c-5.26-0.59-11.22,0.62-16.83,3.8c-6.52,3.7-11.2,9.34-12.84,15.47
        c-0.64,2.39-0.77,4.77-0.41,7.02c-5.51,0.44-15.15,0.39-24.17-3.77C27.96,106.83,9.09,93.93,9.09,65.85
        c0-6.51,1.09-12.35,2.98-17.56c0.28-1.53,0.09-3.67-2.44-5.2c-4.01-2.42-6.24,2.55-6.56,3.33C1.17,52.05,0,58.5,0,65.85
        c0,33.14,22.18,48.33,35.39,54.43c8.33,3.84,16.89,4.81,23.4,4.81c4.08,0,7.34-0.38,9.24-0.67c3.26,2.96,7.8,4.5,12.8,4.5
        c4.58,0,9.54-1.29,14.24-3.96c6.52-3.7,11.2-9.34,12.84-15.47C109.06,105.17,108.56,100.85,106.5,97.33
        C106.5,97.33,106.5,97.33,106.5,97.33z M99.13,107.13c-1,3.74-4.2,7.45-8.55,9.92c-6.96,3.95-14.99,3.62-17.54-0.73
        c-1.06-1.8-0.84-3.82-0.47-5.2c1-3.74,4.2-7.45,8.55-9.92c3.26-1.85,6.75-2.76,9.8-2.76c3.47,0,6.38,1.18,7.74,3.49
        C99.71,103.73,99.5,105.75,99.13,107.13z"/>
    <path class="st0" d="M82.74,9.57c-12.19-5.63-24.89-5.09-30.9-4.38c-3.86-4.29-9.85-6.01-17.24-4.83
        c-5.88,0.94-10.82,3.39-11.03,3.5c-0.08,0.04-0.16,0.08-0.24,0.13L7.14,13.35c-2.17,1.26-2.92,4.03-1.66,6.21
        c0.84,1.46,2.37,2.27,3.94,2.27c0.77,0,1.55-0.2,2.27-0.61l16.06-9.27c0.95-0.44,8.81-3.97,14.21-2.49L14.16,25.5
        c-2.17,1.26-2.92,4.03-1.66,6.21c1.25,2.17,4.03,2.92,6.21,1.66l27.97-16.15c-0.01,0.06-0.01,0.13-0.02,0.19
        c-0.53,3.93-3.73,7.69-9.26,10.88l-16.21,9.36c-1.56,0.9-2.37,2.6-2.24,4.29c0.05,0.66,0.23,1.31,0.58,1.92
        c0.84,1.46,2.37,2.27,3.94,2.27c0.66,0,1.33-0.15,1.96-0.46c0.1-0.05,0.21-0.09,0.31-0.15l16.21-9.36
        c10.58-6.11,13.35-13.32,13.81-18.29c0.13-1.41,0.09-2.72-0.06-3.9c5.62-0.36,14.72-0.1,23.25,3.84
        c11.25,5.19,30.11,18.09,30.11,46.17c0,5.97-0.91,11.38-2.51,16.25c0.2-0.07,0.32-0.1,0.32-0.1s-2.55,4.46,1.8,7.08
        c2.7,1.63,4.59-0.09,5.64-1.63c2.35-6.13,3.84-13.29,3.84-21.6C118.14,30.85,95.96,15.67,82.74,9.57z"/>
    <path class="st0" d="M100.85,91.83c-0.34-0.2-0.69-0.39-1.05-0.56c0.34,0.21,0.67,0.42,1,0.64
        C100.81,91.88,100.83,91.86,100.85,91.83z"/>
    <path class="st0" d="M100.85,91.83c-0.02,0.03-0.04,0.05-0.05,0.08"/>
</g>
</svg>